<svg width="23" height="21" viewBox="0 0 23 21" fill="none" xmlns="http://www.w3.org/2000/svg">
<path d="M22.6118 18.6046L19.4984 15.7249C20.938 14.0213 21.7192 11.9176 21.7163 9.75185C21.7163 7.82312 21.1005 5.9377 19.9469 4.33402C18.7933 2.73033 17.1536 1.48041 15.2352 0.74232C13.3168 0.00422536 11.2059 -0.188894 9.16931 0.187383C7.13275 0.563661 5.26205 1.49243 3.79377 2.85625C2.32549 4.22008 1.32558 5.95769 0.920485 7.84936C0.515388 9.74104 0.723299 11.7018 1.51793 13.4837C2.31255 15.2656 3.6582 16.7887 5.38472 17.8602C7.11123 18.9318 9.14106 19.5037 11.2175 19.5037C13.5491 19.5064 15.8139 18.7808 17.648 17.4436L20.7483 20.3355C20.8703 20.4498 21.0154 20.5405 21.1753 20.6023C21.3353 20.6642 21.5068 20.6961 21.68 20.6961C21.8533 20.6961 22.0248 20.6642 22.1847 20.6023C22.3447 20.5405 22.4898 20.4498 22.6118 20.3355C22.7348 20.2222 22.8324 20.0874 22.8991 19.9388C22.9657 19.7903 23 19.631 23 19.47C23 19.3091 22.9657 19.1498 22.8991 19.0013C22.8324 18.8527 22.7348 18.7179 22.6118 18.6046ZM3.34345 9.75185C3.34345 8.3053 3.80525 6.89124 4.67047 5.68848C5.53568 4.48571 6.76544 3.54827 8.20424 2.9947C9.64304 2.44113 11.2263 2.29629 12.7537 2.5785C14.2811 2.86071 15.6841 3.55729 16.7853 4.58015C17.8865 5.60302 18.6365 6.90623 18.9403 8.32499C19.2441 9.74374 19.0882 11.2143 18.4922 12.5508C17.8962 13.8872 16.887 15.0295 15.5921 15.8331C14.2972 16.6368 12.7749 17.0657 11.2175 17.0657C9.12918 17.0657 7.12638 16.2952 5.64971 14.9236C4.17303 13.5519 3.34345 11.6916 3.34345 9.75185Z" fill="#272727"/>
</svg>
