<svg width="17" height="16" viewBox="0 0 17 16" fill="none" xmlns="http://www.w3.org/2000/svg">
<g clip-path="url(#clip0_321_424)">
<path d="M5.05274 15.6249C4.53445 15.6226 4.03022 15.4592 3.61238 15.1582C3.18537 14.8633 2.86674 14.441 2.70389 13.954C2.54103 13.4671 2.54265 12.9415 2.7085 12.4555L3.50305 10.0429L1.41143 8.54153C0.992054 8.24073 0.680333 7.81742 0.520871 7.33216C0.361408 6.8469 0.362375 6.32457 0.523633 5.83988C0.684891 5.3552 0.998177 4.933 1.41867 4.6337C1.83916 4.33439 2.34531 4.17333 2.8647 4.17353H5.42488L6.20245 1.79353C6.36203 1.30616 6.67506 0.88108 7.09646 0.579519C7.51786 0.277959 8.02588 0.115479 8.54736 0.115479C9.06884 0.115479 9.57686 0.277959 9.99826 0.579519C10.4197 0.88108 10.7327 1.30616 10.8923 1.79353L11.6726 4.17353H14.2327C14.7521 4.17347 15.2581 4.33464 15.6785 4.63399C16.0989 4.93334 16.4121 5.35554 16.5732 5.8402C16.7344 6.32485 16.7353 6.84713 16.5758 7.33232C16.4164 7.81751 16.1047 8.24077 15.6853 8.54153L13.5944 10.0429L14.3889 12.4555C14.5491 12.9422 14.548 13.4662 14.3856 13.9522C14.2232 14.4382 13.908 14.8611 13.4853 15.1601C13.0626 15.4591 12.5542 15.6187 12.0333 15.6161C11.5123 15.6135 11.0056 15.4487 10.586 15.1455L8.54872 13.6749L6.51143 15.1462C6.08989 15.4549 5.57861 15.6226 5.05274 15.6249ZM2.8647 6.17353C2.77506 6.17352 2.68771 6.20133 2.61514 6.25298C2.54257 6.30462 2.48848 6.37747 2.46061 6.46111C2.43274 6.54474 2.43251 6.63488 2.45996 6.71865C2.4874 6.80242 2.54112 6.87553 2.61343 6.92753L5.29993 8.85487C5.47292 8.97904 5.60161 9.15361 5.66769 9.35373C5.73377 9.55386 5.73388 9.76934 5.668 9.96953L4.64936 13.0695C4.62109 13.1536 4.6208 13.2444 4.64853 13.3286C4.67626 13.4129 4.73057 13.4863 4.80361 13.5383C4.87665 13.5902 4.96463 13.618 5.05483 13.6176C5.14503 13.6173 5.23277 13.5888 5.30536 13.5362L7.94636 11.6289C8.12132 11.5025 8.33285 11.4343 8.55008 11.4343C8.7673 11.4343 8.97883 11.5025 9.15379 11.6289L11.7948 13.5355C11.8673 13.5886 11.9552 13.6175 12.0456 13.6181C12.136 13.6187 12.2242 13.5909 12.2975 13.5388C12.3707 13.4868 12.425 13.4131 12.4526 13.3285C12.4802 13.244 12.4796 13.153 12.4508 13.0689L11.4322 9.96887C11.3663 9.76868 11.3664 9.55319 11.4325 9.35307C11.4985 9.15294 11.6272 8.97837 11.8002 8.8542L14.486 6.92687C14.5583 6.8749 14.612 6.80185 14.6395 6.71814C14.6669 6.63444 14.6668 6.54436 14.639 6.46076C14.6112 6.37715 14.5572 6.3043 14.4847 6.2526C14.4123 6.2009 14.325 6.173 14.2355 6.17287H10.9255C10.7098 6.17281 10.4996 6.10552 10.3254 5.98067C10.1511 5.85583 10.0217 5.67988 9.9558 5.4782L8.95617 2.4042C8.92864 2.32007 8.87462 2.24668 8.80188 2.19462C8.72914 2.14256 8.64145 2.11451 8.55143 2.11451C8.46142 2.11451 8.37372 2.14256 8.30099 2.19462C8.22825 2.24668 8.17423 2.32007 8.14669 2.4042L7.1396 5.47887C7.07383 5.68023 6.94473 5.85594 6.77086 5.98075C6.59699 6.10556 6.38729 6.17306 6.17189 6.17353H2.8647Z" fill="#B0B4B7"/>
</g>
<defs>
<clipPath id="clip0_321_424">
<rect width="16.2983" height="16" fill="white" transform="translate(0.399567)"/>
</clipPath>
</defs>
</svg>
