<svg width="17" height="16" viewBox="0 0 17 16" fill="none" xmlns="http://www.w3.org/2000/svg">
<g clip-path="url(#clip0_321_422)">
<path d="M1.44305 8.26684L3.86063 10.0002L2.94249 12.7915C2.79412 13.2244 2.79224 13.6928 2.93713 14.1269C3.08203 14.561 3.36594 14.9374 3.74654 15.2002C4.12062 15.4714 4.57394 15.6166 5.03896 15.6144C5.50398 15.6121 5.9558 15.4624 6.3271 15.1875L8.69103 13.4795L11.0556 15.1855C11.429 15.4551 11.8799 15.6016 12.3434 15.6038C12.807 15.606 13.2593 15.4639 13.6354 15.1978C14.0114 14.9318 14.2919 14.5555 14.4364 14.1232C14.5809 13.6908 14.582 13.2246 14.4396 12.7915L13.5214 10.0002L15.939 8.26684C16.3119 7.99918 16.5891 7.62267 16.7311 7.1911C16.873 6.75953 16.8723 6.29496 16.7292 5.86377C16.5862 5.43257 16.3079 5.05679 15.9343 4.79011C15.5606 4.52343 15.1107 4.37949 14.6487 4.37884H11.679L10.7779 1.62151C10.6362 1.18748 10.3577 0.808849 9.98264 0.540217C9.60758 0.271584 9.1553 0.126831 8.69103 0.126831C8.22675 0.126831 7.77447 0.271584 7.39941 0.540217C7.02435 0.808849 6.74588 1.18748 6.60417 1.62151L5.70301 4.37884H2.73605C2.27409 4.37949 1.82415 4.52343 1.45051 4.79011C1.07686 5.05679 0.798617 5.43257 0.655519 5.86377C0.512421 6.29496 0.511787 6.75953 0.653709 7.1911C0.795631 7.62267 1.07285 7.99918 1.44577 8.26684H1.44305Z" fill="#FFE605"/>
</g>
<defs>
<clipPath id="clip0_321_422">
<rect width="16.2983" height="16" fill="white" transform="translate(0.542038)"/>
</clipPath>
</defs>
</svg>
